<?xml-stylesheet type="text/css" href="../css/vectors.css" ?>
<svg xmlns="http://www.w3.org/2000/svg" viewBox="1085 -315 2497 2637">
  <g transform="translate(2334.896983 1003.5)rotate(-90)" class="a">
    <path d="M-411.2-1234.3C-411.2-1020.4-446.2-777-411.2-566.5 -404.3-524.9-391.2-457.7-387.2-415.7 -378.4-325.5-412.8-162.5-411.2-71.9 -408.8 65-340.7 197.9-367.9 323.3 -389.8 424.5-409.3 687.9-411.2 794.3 -416.9 1104.7-365.7 927.5-367.9 1237.9" class="b"/>
    <path d="M366.6-1238C345-695.7 348.2-152 371.7 389.7 373.7 437.2 377.7 484.9 385.7 531.7 399.3 611.4 410.7 555.7 413.8 631.8 417 712.4 415.7 793.1 416.3 873.8 416.5 899.5 420.5 925.6 416.3 950.9 408.1 1000.1 388.3 1046.5 379.3 1095.6 371.6 1137.7 398.8 1175.9 388.2 1214.4 378.1 1251.4 370.7 1155.5 370.7 1234.2" class="b"/>
    <path d="M1307.9-430C1219.5-430 1125.3-425.8 1037.6-416 986.2-410.3 936.2-391.4 884.5-390.5 452.5-382.9 20.4-388.5-411.7-390.5 -567.9-391.2-720.1-426-876-433.9 -1020-441.1-1164.3-433.9-1308.5-433.9" class="b"/>
    <path d="M-1279.1 348.6C-1169.5 348.6-1069.7 316.9-961.6 311.6 -418.1 284.9-701.1 348.4-365.2 352.4 -75.6 355.9-109.4 327.5 180.2 323.1 224.3 322.4 267.6 310.5 311.6 307.8 390 303 456.6 307.6 533.6 319.2 777.9 356.2 958.8 389.7 1207.2 347.3 1209 347 1208.9 350.7 1209.7 352.4" class="b"/>
  </g>
  <g class="a c">
    <path d="M1454.2-131C1454.2-72.8 1444.7-6.5 1454.2 50.8 1456.1 62.1 1459.7 80.4 1460.8 91.8 1463.2 116.4 1453.8 160.7 1454.2 185.4 1454.9 222.7 1473.4 258.8 1466 293 1460.1 320.5 1454.8 392.2 1454.2 421.2 1452.7 505.7 1466.6 457.4 1466 541.9"/>
    <path d="M1665.9-132C1660.1 15.6 1660.9 163.6 1667.3 311 1667.9 324 1669 336.9 1671.1 349.7 1674.8 371.4 1678 356.2 1678.8 376.9 1679.7 398.9 1679.3 420.9 1679.5 442.8 1679.5 449.8 1680.6 456.9 1679.5 463.8 1677.2 477.2 1671.8 489.8 1669.4 503.2 1667.3 514.6 1674.7 525 1671.8 535.5 1669.1 545.6 1667.1 519.5 1667.1 540.9"/>
    <path d="M1922.2 87.9C1898.1 87.9 1872.4 89.1 1848.6 91.7 1834.6 93.3 1821 98.4 1806.9 98.7 1689.3 100.8 1571.7 99.2 1454.1 98.7 1411.6 98.5 1370.2 89 1327.7 86.9 1288.5 84.9 1249.2 86.9 1210 86.9"/>
    <path d="M1218 299.8C1247.8 299.8 1275 291.2 1304.4 289.8 1452.4 282.5 1375.3 299.8 1466.8 300.9 1545.6 301.8 1536.4 294.1 1615.2 292.9 1627.2 292.7 1639 289.5 1651 288.7 1672.3 287.4 1690.4 288.7 1711.4 291.9 1777.9 301.9 1827.1 311 1894.7 299.5 1895.2 299.4 1895.2 300.4 1895.4 300.9"/>
  </g>
  <g class="a c">
    <path d="M2235.2-131C2235.2-72.8 2225.7-6.5 2235.2 50.8 2237.1 62.1 2240.7 80.4 2241.8 91.8 2244.2 116.4 2234.8 160.7 2235.2 185.4 2235.9 222.7 2254.4 258.8 2247 293 2241.1 320.5 2235.8 392.2 2235.2 421.2 2233.7 505.7 2247.6 457.4 2247 541.9"/>
    <path d="M2446.9-132C2441.1 15.6 2441.9 163.6 2448.3 311 2448.9 324 2450 336.9 2452.1 349.7 2455.8 371.4 2459 356.2 2459.8 376.9 2460.7 398.9 2460.3 420.9 2460.5 442.8 2460.5 449.8 2461.6 456.9 2460.5 463.8 2458.2 477.2 2452.8 489.8 2450.4 503.2 2448.3 514.6 2455.7 525 2452.8 535.5 2450.1 545.6 2448.1 519.5 2448.1 540.9" />
    <path d="M2703.2 87.9C2679.1 87.9 2653.4 89.1 2629.6 91.7 2615.6 93.3 2602 98.4 2587.9 98.7 2470.3 100.8 2352.7 99.2 2235.1 98.7 2192.6 98.5 2151.2 89 2108.7 86.9 2069.5 84.9 2030.2 86.9 1991 86.9" />
    <path d="M1999 299.8C2028.8 299.8 2056 291.2 2085.4 289.8 2233.4 282.5 2156.3 299.8 2247.8 300.9 2326.6 301.8 2317.4 294.1 2396.2 292.9 2408.2 292.7 2420 289.5 2432 288.7 2453.3 287.4 2471.4 288.7 2492.4 291.9 2558.9 301.9 2608.1 311 2675.7 299.5 2676.2 299.4 2676.2 300.4 2676.4 300.9" />
  </g>
  <g class="a c">
    <path d="M3016.2-131C3016.2-72.8 3006.7-6.5 3016.2 50.8 3018.1 62.1 3021.7 80.4 3022.8 91.8 3025.2 116.4 3015.8 160.7 3016.2 185.4 3016.9 222.7 3035.4 258.8 3028 293 3022.1 320.5 3016.8 392.2 3016.2 421.2 3014.7 505.7 3028.6 457.4 3028 541.9" />
    <path d="M3227.9-132C3222.1 15.6 3222.9 163.6 3229.3 311 3229.9 324 3231 336.9 3233.1 349.7 3236.8 371.4 3240 356.2 3240.8 376.9 3241.7 398.9 3241.3 420.9 3241.5 442.8 3241.5 449.8 3242.6 456.9 3241.5 463.8 3239.2 477.2 3233.8 489.8 3231.4 503.2 3229.3 514.6 3236.7 525 3233.8 535.5 3231.1 545.6 3229.1 519.5 3229.1 540.9" />
    <path d="M3484.2 87.9C3460.1 87.9 3434.4 89.1 3410.6 91.7 3396.6 93.3 3383 98.4 3368.9 98.7 3251.3 100.8 3133.7 99.2 3016.1 98.7 2973.6 98.5 2932.2 89 2889.7 86.9 2850.5 84.9 2811.2 86.9 2772 86.9" />
    <path d="M2780 299.8C2809.8 299.8 2837 291.2 2866.4 289.8 3014.4 282.5 2937.3 299.8 3028.8 300.9 3107.6 301.8 3098.4 294.1 3177.2 292.9 3189.2 292.7 3201 289.5 3213 288.7 3234.3 287.4 3252.4 288.7 3273.4 291.9 3339.9 301.9 3389.1 311 3456.7 299.5 3457.2 299.4 3457.2 300.4 3457.4 300.9" />
  </g>
  <g class="a c">
    <path d="M1442.2 688C1442.2 746.2 1432.7 812.5 1442.2 869.8 1444.1 881.1 1447.7 899.4 1448.8 910.8 1451.2 935.4 1441.8 979.7 1442.2 1004.4 1442.9 1041.7 1461.4 1077.8 1454 1112 1448.1 1139.5 1442.8 1211.2 1442.2 1240.2 1440.7 1324.7 1454.6 1276.4 1454 1360.9" />
    <path d="M1653.9 687C1648.1 834.6 1648.9 982.6 1655.3 1130 1655.9 1143 1657 1155.9 1659.1 1168.7 1662.8 1190.4 1666 1175.2 1666.8 1195.9 1667.7 1217.9 1667.3 1239.9 1667.5 1261.8 1667.5 1268.8 1668.6 1275.9 1667.5 1282.8 1665.2 1296.2 1659.8 1308.8 1657.4 1322.2 1655.3 1333.6 1662.7 1344 1659.8 1354.5 1657.1 1364.6 1655.1 1338.5 1655.1 1359.9" />
    <path d="M1910.2 906.9C1886.1 906.9 1860.4 908.1 1836.6 910.7 1822.6 912.3 1809 917.4 1794.9 917.7 1677.3 919.8 1559.7 918.2 1442.1 917.7 1399.6 917.5 1358.2 908 1315.7 905.9 1276.5 903.9 1237.2 905.9 1198 905.9" />
    <path d="M1206 1118.8C1235.8 1118.8 1263 1110.2 1292.4 1108.8 1440.4 1101.5 1363.3 1118.8 1454.8 1119.9 1533.6 1120.8 1524.4 1113.1 1603.2 1111.9 1615.2 1111.7 1627 1108.5 1639 1107.7 1660.3 1106.4 1678.4 1107.7 1699.4 1110.9 1765.9 1120.9 1815.1 1130 1882.7 1118.5 1883.2 1118.4 1883.2 1119.4 1883.4 1119.9" />
  </g>
  <g transform="translate(2335.5 1024)rotate(90)" class="a c">
    <path d="M-112.3-336C-112.3-277.8-121.8-211.5-112.3-154.2 -110.4-142.9-106.8-124.6-105.7-113.2 -103.3-88.6-112.7-44.3-112.3-19.6 -111.6 17.7-93.1 53.8-100.5 88 -106.4 115.5-111.7 187.2-112.3 216.2 -113.8 300.7-99.9 252.4-100.5 336.9" />
    <path d="M99.4-337C93.6-189.4 94.4-41.4 100.8 106 101.4 119 102.5 131.9 104.6 144.7 108.3 166.4 111.5 151.2 112.3 171.9 113.2 193.9 112.8 215.9 113 237.8 113 244.8 114.1 251.9 113 258.8 110.7 272.2 105.3 284.8 102.9 298.2 100.8 309.6 108.2 320 105.3 330.5 102.6 340.6 100.6 314.5 100.6 335.9" />
    <path d="M355.7-117.1C331.6-117.1 305.9-115.9 282.1-113.3 268.1-111.7 254.5-106.6 240.4-106.3 122.8-104.2 5.2-105.8-112.4-106.3 -154.9-106.5-196.3-116-238.8-118.1 -278-120.1-317.3-118.1-356.5-118.1" />
    <path d="M-348.5 94.8C-318.7 94.8-291.5 86.2-262.1 84.8 -114.1 77.5-191.2 94.8-99.7 95.9 -20.9 96.8-30.1 89.1 48.7 87.9 60.7 87.7 72.5 84.5 84.5 83.7 105.8 82.4 123.9 83.7 144.9 86.9 211.4 96.9 260.6 106 328.2 94.5 328.7 94.4 328.7 95.4 328.9 95.9" />
  </g>
  <g transform="translate(3116.5 1024)rotate(-90)" class="a c">
    <path d="M-112.3-336C-112.3-277.8-121.8-211.5-112.3-154.2 -110.4-142.9-106.8-124.6-105.7-113.2 -103.3-88.6-112.7-44.3-112.3-19.6 -111.6 17.7-93.1 53.8-100.5 88 -106.4 115.5-111.7 187.2-112.3 216.2 -113.8 300.7-99.9 252.4-100.5 336.9" />
    <path d="M99.4-337C93.6-189.4 94.4-41.4 100.8 106 101.4 119 102.5 131.9 104.6 144.7 108.3 166.4 111.5 151.2 112.3 171.9 113.2 193.9 112.8 215.9 113 237.8 113 244.8 114.1 251.9 113 258.8 110.7 272.2 105.3 284.8 102.9 298.2 100.8 309.6 108.2 320 105.3 330.5 102.6 340.6 100.6 314.5 100.6 335.9" />
    <path d="M355.7-117.1C331.6-117.1 305.9-115.9 282.1-113.3 268.1-111.7 254.5-106.6 240.4-106.3 122.8-104.2 5.2-105.8-112.4-106.3 -154.9-106.5-196.3-116-238.8-118.1 -278-120.1-317.3-118.1-356.5-118.1" />
    <path d="M-348.5 94.8C-318.7 94.8-291.5 86.2-262.1 84.8 -114.1 77.5-191.2 94.8-99.7 95.9 -20.9 96.8-30.1 89.1 48.7 87.9 60.7 87.7 72.5 84.5 84.5 83.7 105.8 82.4 123.9 83.7 144.9 86.9 211.4 96.9 260.6 106 328.2 94.5 328.7 94.4 328.7 95.4 328.9 95.9" />
  </g>
  <g transform="translate(1566.5 1816)rotate(-90)" class="a c">
    <path d="M-112.3-336C-112.3-277.8-121.8-211.5-112.3-154.2 -110.4-142.9-106.8-124.6-105.7-113.2 -103.3-88.6-112.7-44.3-112.3-19.6 -111.6 17.7-93.1 53.8-100.5 88 -106.4 115.5-111.7 187.2-112.3 216.2 -113.8 300.7-99.9 252.4-100.5 336.9" />
    <path d="M99.4-337C93.6-189.4 94.4-41.4 100.8 106 101.4 119 102.5 131.9 104.6 144.7 108.3 166.4 111.5 151.2 112.3 171.9 113.2 193.9 112.8 215.9 113 237.8 113 244.8 114.1 251.9 113 258.8 110.7 272.2 105.3 284.8 102.9 298.2 100.8 309.6 108.2 320 105.3 330.5 102.6 340.6 100.6 314.5 100.6 335.9" />
    <path d="M355.7-117.1C331.6-117.1 305.9-115.9 282.1-113.3 268.1-111.7 254.5-106.6 240.4-106.3 122.8-104.2 5.2-105.8-112.4-106.3 -154.9-106.5-196.3-116-238.8-118.1 -278-120.1-317.3-118.1-356.5-118.1" />
    <path d="M-348.5 94.8C-318.7 94.8-291.5 86.2-262.1 84.8 -114.1 77.5-191.2 94.8-99.7 95.9 -20.9 96.8-30.1 89.1 48.7 87.9 60.7 87.7 72.5 84.5 84.5 83.7 105.8 82.4 123.9 83.7 144.9 86.9 211.4 96.9 260.6 106 328.2 94.5 328.7 94.4 328.7 95.4 328.9 95.9" />
  </g>
  <g class="a c">
    <path d="M2229.2 1480C2229.2 1538.2 2219.7 1604.5 2229.2 1661.8 2231.1 1673.1 2234.7 1691.4 2235.8 1702.8 2238.2 1727.4 2228.8 1771.7 2229.2 1796.4 2229.9 1833.7 2248.4 1869.8 2241 1904 2235.1 1931.5 2229.8 2003.2 2229.2 2032.2 2227.7 2116.7 2241.6 2068.4 2241 2152.9" />
    <path d="M2440.9 1479C2435.1 1626.6 2435.9 1774.6 2442.3 1922 2442.9 1935 2444 1947.9 2446.1 1960.7 2449.8 1982.4 2453 1967.2 2453.8 1987.9 2454.7 2009.9 2454.3 2031.9 2454.5 2053.8 2454.5 2060.8 2455.6 2067.9 2454.5 2074.8 2452.2 2088.2 2446.8 2100.8 2444.4 2114.2 2442.3 2125.6 2449.7 2136 2446.8 2146.5 2444.1 2156.6 2442.1 2130.5 2442.1 2151.9" />
    <path d="M2697.2 1698.9C2673.1 1698.9 2647.4 1700.1 2623.6 1702.7 2609.6 1704.3 2596 1709.4 2581.9 1709.7 2464.3 1711.8 2346.7 1710.2 2229.1 1709.7 2186.6 1709.5 2145.2 1700 2102.7 1697.9 2063.5 1695.9 2024.2 1697.9 1985 1697.9" />
    <path d="M1993 1910.8C2022.8 1910.8 2050 1902.2 2079.4 1900.8 2227.4 1893.5 2150.3 1910.8 2241.8 1911.9 2320.6 1912.8 2311.4 1905.1 2390.2 1903.9 2402.2 1903.7 2414 1900.5 2426 1899.7 2447.3 1898.4 2465.4 1899.7 2486.4 1902.9 2552.9 1912.9 2602.1 1922 2669.7 1910.5 2670.2 1910.4 2670.2 1911.4 2670.4 1911.9" />
  </g>
  <g class="a c">
    <path d="M3010.2 1480C3010.2 1538.2 3000.7 1604.5 3010.2 1661.8 3012.1 1673.1 3015.7 1691.4 3016.8 1702.8 3019.2 1727.4 3009.8 1771.7 3010.2 1796.4 3010.9 1833.7 3029.4 1869.8 3022 1904 3016.1 1931.5 3010.8 2003.2 3010.2 2032.2 3008.7 2116.7 3022.6 2068.4 3022 2152.9" />
    <path d="M3221.9 1479C3216.1 1626.6 3216.9 1774.6 3223.3 1922 3223.9 1935 3225 1947.9 3227.1 1960.7 3230.8 1982.4 3234 1967.2 3234.8 1987.9 3235.7 2009.9 3235.3 2031.9 3235.5 2053.8 3235.5 2060.8 3236.6 2067.9 3235.5 2074.8 3233.2 2088.2 3227.8 2100.8 3225.4 2114.2 3223.3 2125.6 3230.7 2136 3227.8 2146.5 3225.1 2156.6 3223.1 2130.5 3223.1 2151.9" />
    <path d="M3478.2 1698.9C3454.1 1698.9 3428.4 1700.1 3404.6 1702.7 3390.6 1704.3 3377 1709.4 3362.9 1709.7 3245.3 1711.8 3127.7 1710.2 3010.1 1709.7 2967.6 1709.5 2926.2 1700 2883.7 1697.9 2844.5 1695.9 2805.2 1697.9 2766 1697.9" />
    <path d="M2774 1910.8C2803.8 1910.8 2831 1902.2 2860.4 1900.8 3008.4 1893.5 2931.3 1910.8 3022.8 1911.9 3101.6 1912.8 3092.4 1905.1 3171.2 1903.9 3183.2 1903.7 3195 1900.5 3207 1899.7 3228.3 1898.4 3246.4 1899.7 3267.4 1902.9 3333.9 1912.9 3383.1 1922 3450.7 1910.5 3451.2 1910.4 3451.2 1911.4 3451.4 1911.9" />
  </g>
</svg>
